<svg id="Layer_1_1_" enable-background="new 0 0 64 64" height="512" viewBox="0 0 64 64" width="512" xmlns="http://www.w3.org/2000/svg"><path d="m58 57-12-4-29 1-10 2-4 5h58z" fill="#ffecc7"/><path d="m46 53-29 1-5.315 1.063 5.815 5.937h31.071l2.219-6.403z" fill="#f0debb"/><path d="m21 60h6l-12-28h-12z" fill="#4caff0"/><path d="m3 32h12l-2-14z" fill="#4eb3f5"/><path d="m15 32 14-7-16-7z" fill="#75c8ff"/><path d="m42 17-2.863 15.033 6.609 6.009 7.254-19.042z" fill="#63c1ff"/><path d="m42 17 11 2-2-16z" fill="#75c8ff"/><path d="m51 3-17 11 8 3z" fill="#4eb3f5"/><path d="m53 19h8l-10-16z" fill="#4eb3f5"/><path d="m42 17-8-3-1.393 22.993 5.393-5.993 1.137 1.033z" fill="#4caff0"/><path d="m61 19h-8l-7.254 19.042 3.254 2.958z" fill="#4caff0"/><path d="m29 25-14 7 12 28 6.089-6.179z" fill="#63c1ff"/><path d="m43 43-3 15h5l4-17z" fill="#63c1ff"/><path d="m29 41 5 17h6l3-15z" fill="#4caff0"/><path d="m38 31-5.393 5.993-1.693 1.881-1.914 2.126 14 2z" fill="#4eb3f5"/><path d="m43 43 6-2-3.254-2.958-7.746-7.042z" fill="#75c8ff"/><path d="m32.365 52.442-7.139 3.087-10.976-6.029 6.75 10.5h6l5.844-5.93z" fill="#49a9e8"/><path d="m30.143 44.607-.084-.006 3.941 13.399h6 5l.824-3.5-8.931-.5z" fill="#49a9e8"/><path d="m51.269 36.84-10.523-13.255-7.484 2.585-.655 10.823 5.393-5.993 1.137 1.033 6.609 6.009 3.254 2.958z" fill="#49a9e8"/><path d="m40.757 54.216-.757 3.784h5l.824-3.5z" fill="#4caff0"/><path d="m40.746 23.585-1.609 8.448 6.609 6.009 2.1-5.514z" fill="#4caff0"/><path d="m32.365 52.442-7.139 3.087-.186-.102 1.96 4.573 5.844-5.93z" fill="#4caff0"/><g fill="#75c8ff"><path d="m28 10v-2h-2v-4h-2v4h-2v2h2v4h2v-4z"/><path d="m16 12h2v2h-2z"/><path d="m28 18h2v2h-2z"/><path d="m39 3h2v2h-2z"/></g></svg>