<svg width="122" height="122" viewBox="0 0 122 122" fill="none" xmlns="http://www.w3.org/2000/svg">
<path d="M15.4761 30.7826C14.4756 30.7826 13.6642 31.5939 13.6642 32.5945V37.3961C13.6642 38.3966 14.4756 39.208 15.4761 39.208C16.4767 39.208 17.288 38.3966 17.288 37.3961V32.5945C17.288 31.5939 16.4767 30.7826 15.4761 30.7826Z" fill="white"/>
<path d="M15.4761 43.7094C14.4756 43.7094 13.6642 44.5207 13.6642 45.5212V50.3228C13.6642 51.3234 14.4756 52.1347 15.4761 52.1347C16.4767 52.1347 17.288 51.3234 17.288 50.3228V45.5212C17.288 44.5207 16.4767 43.7094 15.4761 43.7094Z" fill="white"/>
<path d="M24.3402 39.6469H19.5389C18.5383 39.6469 17.727 40.4583 17.727 41.4588C17.727 42.4593 18.5383 43.2707 19.5389 43.2707H24.3405C25.341 43.2707 26.1523 42.4593 26.1523 41.4588C26.1521 40.4583 25.341 39.6469 24.3402 39.6469Z" fill="white"/>
<path d="M11.4132 39.6469H6.61185C5.6113 39.6469 4.79996 40.4583 4.79996 41.4588C4.79996 42.4593 5.6113 43.2707 6.61185 43.2707H11.4135C12.414 43.2707 13.2253 42.4593 13.2253 41.4588C13.2251 40.4583 12.414 39.6469 11.4132 39.6469Z" fill="white"/>
<path d="M104.86 6.89777C103.86 6.89777 103.048 7.70911 103.048 8.70966V13.5113C103.048 14.5118 103.86 15.3232 104.86 15.3232C105.861 15.3232 106.672 14.5118 106.672 13.5113V8.70966C106.672 7.70888 105.861 6.89777 104.86 6.89777Z" fill="white"/>
<path d="M104.86 19.8248C103.86 19.8248 103.048 20.6361 103.048 21.6367V26.4383C103.048 27.4386 103.86 28.2499 104.86 28.2499C105.861 28.2499 106.672 27.4386 106.672 26.438V21.6367C106.672 20.6359 105.861 19.8248 104.86 19.8248Z" fill="white"/>
<path d="M113.725 15.7618H108.923C107.922 15.7618 107.111 16.5732 107.111 17.5737C107.111 18.5743 107.922 19.3856 108.923 19.3856H113.725C114.725 19.3856 115.536 18.5743 115.536 17.5737C115.536 16.5732 114.725 15.7618 113.725 15.7618Z" fill="white"/>
<path d="M100.798 15.7618H95.9959C94.9954 15.7618 94.184 16.5732 94.184 17.5737C94.184 18.5743 94.9954 19.3856 95.9959 19.3856H100.798C101.798 19.3856 102.609 18.5743 102.609 17.5737C102.609 16.5732 101.798 15.7618 100.798 15.7618Z" fill="white"/>
<path d="M65.175 83.4142C63.2825 83.494 61.3491 83.5343 59.4281 83.5343C47.7866 83.5343 36.8662 82.0884 28.6791 79.4625C21.3484 77.1116 16.9718 74.004 16.9718 71.1494C16.9718 69.4285 18.6532 67.5213 21.7065 65.7787C25.1239 63.8282 30.0983 62.1521 36.0911 60.9316C37.0716 60.732 37.7047 59.7753 37.505 58.7945C37.3056 57.814 36.3484 57.1811 35.3679 57.3805C28.9977 58.6777 23.8691 60.4258 20.1665 62.5002C23.312 55.967 27.659 49.771 32.8128 44.7838C33.5319 44.088 33.5507 42.9409 32.8547 42.2218C32.1589 41.5029 31.0118 41.4838 30.2927 42.1799C24.5921 47.6963 19.7588 54.5964 16.3151 62.134C12.8803 69.6527 11.0646 77.2801 11.0646 84.1919C11.0646 90.0963 12.4009 95.5691 15.0363 100.459C15.3637 101.067 15.988 101.412 16.6328 101.412C16.9232 101.412 17.2175 101.342 17.4908 101.194C18.3717 100.72 18.7008 99.6209 18.2261 98.7399C15.8788 94.3842 14.6884 89.4896 14.6884 84.1919C14.6884 81.6385 14.9696 78.9793 15.4969 76.276C21.8213 83.3787 41.0952 87.1581 59.4278 87.1581C61.3994 87.1581 63.3843 87.1166 65.3272 87.0349C66.327 86.9929 67.1034 86.148 67.0614 85.1484C67.0195 84.1488 66.1674 83.3718 65.175 83.4142Z" fill="white"/>
<path d="M107.661 80.9456C107.583 79.9484 106.71 79.2028 105.713 79.2814C104.716 79.3596 103.97 80.2322 104.048 81.2296C104.127 82.2328 104.167 83.2293 104.167 84.1917C104.167 94.4321 99.7095 103.101 91.2758 109.262C83.2304 115.139 71.9204 118.376 59.4288 118.376C43.5521 118.376 29.9319 113.225 22.0617 104.244C21.4022 103.492 20.2575 103.417 19.5048 104.076C18.7523 104.736 18.677 105.881 19.3363 106.633C27.8949 116.399 42.5082 122 59.429 122C72.6834 122 84.7523 118.515 93.4134 112.188C102.819 105.317 107.791 95.6361 107.791 84.1915C107.791 83.1347 107.748 82.0427 107.661 80.9456Z" fill="white"/>
<path d="M92.6349 46.5297C91.1643 44.8 89.6074 43.1587 88.0082 41.6516C87.2796 40.9651 86.133 40.9992 85.4467 41.7271C84.7605 42.4551 84.7946 43.6022 85.5225 44.2884C87.0251 45.7045 88.4891 47.2483 89.8742 48.877C90.2326 49.2985 90.7423 49.5153 91.2553 49.5153C91.6704 49.5153 92.0874 49.3736 92.4281 49.0836C93.1909 48.4357 93.2836 47.2919 92.6349 46.5297Z" fill="white"/>
<path d="M69.2121 13.8909C68.6072 12.4579 66.522 12.4214 65.8843 13.8504C65.5526 14.594 65.775 15.5038 66.4178 16.0063C67.004 16.4646 67.8268 16.5196 68.4661 16.1403C69.2257 15.6885 69.5574 14.7087 69.2121 13.8909Z" fill="white"/>
<path d="M61.1022 15.1132C60.5149 13.7214 58.4916 13.6249 57.8108 14.9924C57.4556 15.7065 57.6107 16.5932 58.1983 17.1365C58.7821 17.6759 59.6764 17.7672 60.3588 17.3612C61.1253 16.9049 61.4303 15.9348 61.1022 15.1132Z" fill="white"/>
<path d="M66.1031 19.9713C65.8026 19.2593 65.0711 18.7989 64.2959 18.8583C63.5544 18.9152 62.9144 19.4278 62.6968 20.1383C62.2212 21.6931 63.9683 23.0444 65.3565 22.2202C66.1157 21.7701 66.4486 20.7881 66.1031 19.9713Z" fill="white"/>
<path d="M90.8159 81.1884C90.5378 80.2274 89.5332 79.6732 88.5715 79.9517C87.25 80.3341 85.8399 80.6942 84.3811 81.0213C83.4046 81.2406 82.7908 82.2097 83.0098 83.1859C83.1988 84.0287 83.9467 84.6015 84.776 84.6015C84.9075 84.6015 85.0407 84.587 85.1744 84.557C86.7051 84.2134 88.1869 83.8352 89.579 83.432C90.5402 83.1544 91.094 82.1496 90.8159 81.1884Z" fill="white"/>
<path d="M87.0158 58.1773C79.0496 56.1907 69.5097 55.1409 59.4278 55.1409C53.7522 55.1409 48.2181 55.4764 42.9788 56.1386C41.9861 56.2639 41.283 57.1705 41.4085 58.1632C41.5341 59.1561 42.4396 59.8588 43.4332 59.7337C48.5222 59.0906 53.9035 58.7644 59.4278 58.7644C69.2188 58.7644 78.4553 59.7771 86.1392 61.6934C86.2864 61.7298 86.4339 61.7475 86.579 61.7475C87.3913 61.7475 88.1302 61.1973 88.3356 60.3735C88.5777 59.4028 87.9868 58.4191 87.0158 58.1773Z" fill="white"/>
<path d="M75.631 18.1625V6.21223C75.6307 1.3084 65.4461 0 59.4283 0C53.4105 0 43.2259 1.3084 43.2259 6.21223V18.1628C35.5704 21.1541 31.0407 26.0868 31.0407 31.5227C31.0407 40.6079 43.5104 47.7249 59.4293 47.7249C63.1524 47.7249 66.7683 47.3291 70.1772 46.5482C71.1527 46.3247 71.7622 45.3528 71.5387 44.3775C71.3152 43.4022 70.3435 42.7929 69.368 43.016C66.2243 43.7358 62.8805 44.1009 59.4293 44.1009C46.0055 44.1009 34.6645 38.3404 34.6645 31.5222C34.6645 27.9814 37.8851 24.4896 43.2259 22.0891V27.3821C42.7076 27.1588 42.2075 26.9263 41.7359 26.6801C40.8491 26.2167 39.7541 26.5603 39.2912 27.4471C38.8277 28.334 39.1711 29.4287 40.0582 29.8919C44.9206 32.432 51.9808 33.8886 59.4285 33.8886C66.877 33.8886 73.938 32.431 78.8003 29.8902C79.6872 29.4268 80.0306 28.3321 79.5669 27.4452C79.1034 26.5584 78.0088 26.215 77.1219 26.6787C76.6501 26.9251 76.1495 27.1581 75.631 27.3814V22.0896C80.9713 24.4915 84.1919 27.983 84.1919 31.5227C84.1919 34.8963 81.3263 38.216 76.3298 40.631C75.4289 41.0663 75.0515 42.1498 75.487 43.0508C75.7997 43.6977 76.4464 44.0746 77.1197 44.0746C77.3842 44.0746 77.653 44.0165 77.9068 43.8938C84.2038 40.85 87.8159 36.3412 87.8159 31.5229C87.8157 26.0885 83.2862 21.1556 75.631 18.1625ZM59.4283 3.62378C67.0018 3.62378 71.1658 5.34632 71.9338 6.21247C71.1658 7.07838 67.0016 8.80092 59.4283 8.80092C51.855 8.80092 47.6908 7.07838 46.9228 6.21247C47.6908 5.34632 51.855 3.62378 59.4283 3.62378ZM72.0069 27.5815C71.5032 28.3712 67.659 30.0987 60.4672 30.2531C60.1217 30.2596 59.776 30.2653 59.4283 30.2653C59.0804 30.2653 58.7347 30.2598 58.3892 30.2529C51.1974 30.0985 47.3534 28.3712 46.8497 27.5813V19.3837C46.8494 19.3742 46.8499 19.3651 46.8497 19.3556V10.3695C50.3639 11.921 55.6968 12.4245 59.4283 12.4245C63.1598 12.4245 68.4928 11.921 72.0069 10.3695V27.5815Z" fill="white"/>
<path d="M114.084 65.2946L109.386 64.3419C105.461 63.5461 102.411 60.4956 101.615 56.5706L100.662 51.8722C100.29 50.0379 98.7235 48.7567 96.8516 48.7567C94.9801 48.7567 93.4132 50.0379 93.0412 51.8722L92.0886 56.5704C91.2927 60.4953 88.2422 63.5458 84.3173 64.3417L79.6191 65.2943C77.7848 65.666 76.5035 67.233 76.5035 69.1049C76.5035 70.9766 77.7848 72.5433 79.6191 72.9153L84.3173 73.8679C88.2422 74.6638 91.2927 77.7143 92.0886 81.6392L93.0412 86.3377C93.4132 88.172 94.9799 89.4532 96.8516 89.4532C98.7233 89.4532 100.29 88.172 100.662 86.3377L101.615 81.6395C102.411 77.7145 105.461 74.664 109.386 73.8682L114.084 72.9155C115.919 72.5438 117.2 70.9769 117.2 69.1052C117.2 67.2335 115.919 65.6663 114.084 65.2946ZM113.364 69.3637L108.666 70.3163C103.311 71.402 99.1493 75.5638 98.0635 80.9189L97.1108 85.6173C97.0927 85.7067 97.0679 85.8289 96.8518 85.8289C96.6359 85.8289 96.6109 85.7067 96.593 85.6173L95.6404 80.9189C94.5545 75.5638 90.3927 71.402 85.0376 70.3163L80.3394 69.3637C80.25 69.3456 80.1278 69.321 80.1278 69.1047C80.1278 68.8883 80.25 68.8638 80.3394 68.8457L85.0376 67.8933C90.3927 66.8077 94.5545 62.6458 95.6404 57.2907L96.593 52.5923C96.6111 52.5029 96.6359 52.3807 96.8518 52.3807C97.0677 52.3807 97.0927 52.5029 97.1108 52.5923L98.0635 57.2907C99.1493 62.6458 103.311 66.8077 108.666 67.8933L113.364 68.8459C113.454 68.864 113.576 68.8886 113.576 69.1049C113.576 69.3213 113.454 69.3456 113.364 69.3637Z" fill="white"/>
<path d="M87.5017 88.6868L86.0331 88.389C83.0403 87.7819 80.7145 85.456 80.1078 82.4634L79.8102 80.9947C79.4632 79.284 78.0021 78.0891 76.2565 78.0891C74.5108 78.0891 73.0497 79.284 72.7027 80.9947L72.4049 82.4634C71.7982 85.4562 69.4723 87.7819 66.4795 88.3888L65.0108 88.6866C63.3001 89.0335 62.1052 90.4949 62.1052 92.2403C62.1052 93.9857 63.3001 95.4471 65.0108 95.7941L66.4795 96.0919C69.4723 96.6988 71.7982 99.0244 72.4049 102.017L72.7027 103.486C73.0497 105.197 74.5108 106.392 76.2565 106.392C78.0021 106.392 79.4632 105.197 79.8102 103.486L80.1078 102.017C80.7147 99.0247 83.0403 96.6991 86.0331 96.0922L87.5017 95.7943C89.2125 95.4474 90.4073 93.986 90.4073 92.2406C90.4073 90.4952 89.2125 89.0338 87.5017 88.6868ZM86.7835 92.242C86.783 92.242 86.7823 92.2422 86.7818 92.2425L85.3133 92.5403C80.8903 93.437 77.4531 96.8742 76.5562 101.297L76.2586 102.766C76.2586 102.766 76.2584 102.767 76.2584 102.767C76.2572 102.767 76.256 102.767 76.2548 102.767C76.2548 102.767 76.2545 102.766 76.2545 102.765L75.9567 101.297C75.0603 96.8739 71.6228 93.4367 67.1996 92.5401L65.7309 92.2422C65.7304 92.2422 65.7297 92.242 65.7292 92.242C65.7292 92.2408 65.7292 92.2396 65.7292 92.2384C65.7297 92.2384 65.7301 92.2382 65.7309 92.2382L67.1996 91.9406C71.6226 91.0439 75.0598 87.6065 75.9567 83.1837L76.2545 81.715C76.2545 81.7145 76.2548 81.7138 76.2548 81.7133C76.256 81.7133 76.2572 81.7133 76.2584 81.7133C76.2584 81.7138 76.2586 81.7145 76.2586 81.715L76.5562 83.1837C77.4529 87.6067 80.8903 91.0437 85.3133 91.9406L86.7818 92.2379C86.7823 92.2379 86.783 92.2382 86.7835 92.2384C86.7835 92.2396 86.7835 92.2408 86.7835 92.242Z" fill="white"/>
</svg>
